<?xml version="1.0" encoding="utf-8"?>
<!-- Generator: Adobe Illustrator 24.0.2, SVG Export Plug-In . SVG Version: 6.00 Build 0)  -->
<svg version="1.1" xmlns="http://www.w3.org/2000/svg" xmlns:xlink="http://www.w3.org/1999/xlink" x="0px" y="0px"
	 viewBox="0 0 1544 500" style="enable-background:new 0 0 1544 500;" xml:space="preserve">
<style type="text/css">
	.st0{fill:#0073AA;}
	.st1{fill:#1E1E1E;}
	.st2{fill:#FFFFFF;}
	.st3{font-family:'Outfit-SemiBold';}
	.st4{font-size:72px;}
	.st5{font-family:'Outfit-Light';}
	.st6{font-size:32px;}
	.st7{font-family:'Outfit-Bold';}
	.st8{font-size:18px;}
</style>
<rect class="st0" width="1544" height="500"/>
<path class="st1" d="M683.3,360H570c-11,0-20-9-20-20l0,0c0-11,9-20,20-20h113.3c11,0,20,9,20,20l0,0C703.3,351,694.4,360,683.3,360
	z"/>
<path class="st1" d="M837.4,360h-89.2c-11,0-20-9-20-20l0,0c0-11,9-20,20-20h89.2c11,0,20,9,20,20l0,0
	C857.4,351,848.5,360,837.4,360z"/>
<path class="st1" d="M1112.3,360h-211c-11,0-20-9-20-20l0,0c0-11,9-20,20-20h211c11,0,20,9,20,20l0,0
	C1132.3,351,1123.3,360,1112.3,360z"/>
<text transform="matrix(1 0 0 1 550 220)" class="st2 st3 st4">Native Blocks Carousel</text>
<text transform="matrix(1 0 0 1 550 280)" class="st2 st5 st6">Transform any block into a responsive carousel</text>
<text transform="matrix(1 0 0 1 579.9834 347)" class="st2 st7 st8">PURE CSS</text>
<text transform="matrix(1 0 0 1 754.0427 347)" class="st2 st7 st8">ZERO JS</text>
<text transform="matrix(1 0 0 1 904.9844 347)" class="st2 st7 st8">MAX PERFORMANCE</text>
<path class="st2" d="M331.7,145H168.3c-12.8,0-23.3,10.5-23.3,23.3v128.3c0,12.8,10.5,23.3,23.3,23.3h163.3
	c12.8,0,23.3-10.5,23.3-23.3V168.3C355,155.5,344.5,145,331.7,145z M163.7,168.3c0-2.8,1.7-5.8,4.7-5.8h163.3c3.5,0,5.8,2.3,5.8,5.8
	v128.3c0,3.5-2.3,5.8-5.8,5.8H168.3c-3.5,0-5.8-2.3-5.8-5.8L163.7,168.3z"/>
<circle class="st2" cx="250.1" cy="346.3" r="8.7"/>
<circle class="st2" cx="215.1" cy="346.3" r="8.7"/>
<circle class="st2" cx="284.9" cy="346.3" r="8.7"/>
<circle class="st2" cx="346.2" cy="232.5" r="32.1"/>
<path class="st0" d="M360.6,233.6l-18.7,18.8c-0.3,0.3-0.7,0.5-1.1,0.5s-0.8-0.2-1.1-0.5l-4.2-4.2c-0.3-0.3-0.5-0.7-0.5-1.1
	c0-0.4,0.2-0.8,0.5-1.1l13.4-13.4L335.4,219c-0.3-0.3-0.5-0.7-0.5-1.1s0.2-0.8,0.5-1.1l4.2-4.2c0.3-0.3,0.7-0.5,1.1-0.5
	s0.8,0.2,1.1,0.5l18.7,18.8c0.3,0.3,0.5,0.7,0.5,1.1C361.1,232.9,360.9,233.3,360.6,233.6z"/>
<ellipse transform="matrix(7.088903e-02 -0.9975 0.9975 7.088903e-02 -89.0178 369.4314)" class="st2" cx="153.8" cy="232.5" rx="32.1" ry="32.1"/>
<path class="st0" d="M139.3,231.4l18.8-18.8c0.3-0.3,0.7-0.5,1.1-0.5c0.4,0,0.8,0.2,1.1,0.5l4.2,4.2c0.3,0.3,0.5,0.7,0.5,1.1
	c0,0.4-0.2,0.8-0.5,1.1L151,232.5l13.5,13.5c0.3,0.3,0.5,0.7,0.5,1.1s-0.2,0.8-0.5,1.1l-4.2,4.2c-0.3,0.3-0.7,0.5-1.1,0.5
	c-0.4,0-0.8-0.2-1.1-0.5l-18.8-18.8c-0.3-0.3-0.5-0.7-0.5-1.1C138.9,232.1,139,231.7,139.3,231.4z"/>
</svg>
